<mxfile host="app.diagrams.net" modified="2024-05-24T22:30:21.171Z" agent="Mozilla/5.0 (Windows NT 10.0; Win64; x64) AppleWebKit/537.36 (KHTML, like Gecko) Chrome/125.0.0.0 Safari/537.36" etag="SeFuUKrDhcd4EYjLLgYY" version="24.4.8" type="device">
  <diagram name="Страница — 1" id="AYODXOkoywi4Ix4SNGkm">
    <mxGraphModel dx="1226" dy="819" grid="0" gridSize="10" guides="1" tooltips="1" connect="1" arrows="1" fold="1" page="0" pageScale="1" pageWidth="827" pageHeight="1169" math="0" shadow="0">
      <root>
        <mxCell id="0" />
        <mxCell id="1" parent="0" />
        <mxCell id="mDczGV4Bh8BKm_zVshYZ-1" value="Персонал" style="shape=umlActor;verticalLabelPosition=bottom;verticalAlign=top;html=1;outlineConnect=0;" parent="1" vertex="1">
          <mxGeometry x="60" y="40" width="30" height="60" as="geometry" />
        </mxCell>
        <mxCell id="mDczGV4Bh8BKm_zVshYZ-5" value="Управление запасами" style="rounded=1;whiteSpace=wrap;html=1;" parent="1" vertex="1">
          <mxGeometry x="190" y="40" width="120" height="60" as="geometry" />
        </mxCell>
        <mxCell id="mDczGV4Bh8BKm_zVshYZ-8" value="Подготовка продуктов" style="rounded=1;whiteSpace=wrap;html=1;" parent="1" vertex="1">
          <mxGeometry x="440" y="40" width="120" height="60" as="geometry" />
        </mxCell>
        <mxCell id="mDczGV4Bh8BKm_zVshYZ-9" value="" style="rounded=0;whiteSpace=wrap;html=1;" parent="1" vertex="1">
          <mxGeometry x="495" y="180" width="10" height="110" as="geometry" />
        </mxCell>
        <mxCell id="mDczGV4Bh8BKm_zVshYZ-10" value="Приготовление напитка" style="rounded=1;whiteSpace=wrap;html=1;" parent="1" vertex="1">
          <mxGeometry x="700" y="40" width="120" height="60" as="geometry" />
        </mxCell>
        <mxCell id="mDczGV4Bh8BKm_zVshYZ-11" value="" style="rounded=0;whiteSpace=wrap;html=1;" parent="1" vertex="1">
          <mxGeometry x="755" y="230" width="10" height="60" as="geometry" />
        </mxCell>
        <mxCell id="mDczGV4Bh8BKm_zVshYZ-12" value="" style="endArrow=none;dashed=1;html=1;rounded=0;" parent="1" edge="1">
          <mxGeometry width="50" height="50" relative="1" as="geometry">
            <mxPoint x="75" y="300" as="sourcePoint" />
            <mxPoint x="75" y="130" as="targetPoint" />
          </mxGeometry>
        </mxCell>
        <mxCell id="mDczGV4Bh8BKm_zVshYZ-13" value="" style="endArrow=classic;html=1;rounded=0;entryX=-0.063;entryY=0.135;entryDx=0;entryDy=0;entryPerimeter=0;" parent="1" target="mDczGV4Bh8BKm_zVshYZ-6" edge="1">
          <mxGeometry width="50" height="50" relative="1" as="geometry">
            <mxPoint x="75" y="160" as="sourcePoint" />
            <mxPoint x="217.47999999999996" y="156.2" as="targetPoint" />
          </mxGeometry>
        </mxCell>
        <mxCell id="mDczGV4Bh8BKm_zVshYZ-15" value="&lt;font style=&quot;font-size: 9px;&quot;&gt;1: Запрос информации о сырье&lt;/font&gt;" style="text;html=1;align=center;verticalAlign=middle;whiteSpace=wrap;rounded=0;" parent="1" vertex="1">
          <mxGeometry x="90" y="130" width="140" height="30" as="geometry" />
        </mxCell>
        <mxCell id="mDczGV4Bh8BKm_zVshYZ-16" value="" style="endArrow=classic;html=1;rounded=0;entryX=0;entryY=0.25;entryDx=0;entryDy=0;exitX=1;exitY=0.443;exitDx=0;exitDy=0;exitPerimeter=0;" parent="1" source="mDczGV4Bh8BKm_zVshYZ-6" target="mDczGV4Bh8BKm_zVshYZ-9" edge="1">
          <mxGeometry width="50" height="50" relative="1" as="geometry">
            <mxPoint x="270" y="210" as="sourcePoint" />
            <mxPoint x="350" y="180" as="targetPoint" />
          </mxGeometry>
        </mxCell>
        <mxCell id="mDczGV4Bh8BKm_zVshYZ-17" value="&lt;font style=&quot;font-size: 9px;&quot;&gt;2: Запрос информации о заказе&lt;/font&gt;" style="text;html=1;align=center;verticalAlign=middle;whiteSpace=wrap;rounded=0;" parent="1" vertex="1">
          <mxGeometry x="260" y="180" width="220" height="30" as="geometry" />
        </mxCell>
        <mxCell id="mDczGV4Bh8BKm_zVshYZ-18" value="" style="endArrow=classic;html=1;rounded=0;entryX=0.041;entryY=0.167;entryDx=0;entryDy=0;entryPerimeter=0;exitX=1.032;exitY=0.542;exitDx=0;exitDy=0;exitPerimeter=0;" parent="1" source="mDczGV4Bh8BKm_zVshYZ-9" target="mDczGV4Bh8BKm_zVshYZ-11" edge="1">
          <mxGeometry width="50" height="50" relative="1" as="geometry">
            <mxPoint x="600" y="285" as="sourcePoint" />
            <mxPoint x="650" y="235" as="targetPoint" />
          </mxGeometry>
        </mxCell>
        <mxCell id="mDczGV4Bh8BKm_zVshYZ-19" value="&lt;font style=&quot;font-size: 9px;&quot;&gt;3: Информация о приготовлении заказа&lt;/font&gt;" style="text;html=1;align=center;verticalAlign=middle;whiteSpace=wrap;rounded=0;" parent="1" vertex="1">
          <mxGeometry x="520" y="210" width="220" height="30" as="geometry" />
        </mxCell>
        <mxCell id="mDczGV4Bh8BKm_zVshYZ-20" value="" style="endArrow=classic;html=1;rounded=0;entryX=1.028;entryY=0.906;entryDx=0;entryDy=0;entryPerimeter=0;exitX=-0.005;exitY=0.835;exitDx=0;exitDy=0;exitPerimeter=0;dashed=1;" parent="1" source="mDczGV4Bh8BKm_zVshYZ-11" target="mDczGV4Bh8BKm_zVshYZ-9" edge="1">
          <mxGeometry width="50" height="50" relative="1" as="geometry">
            <mxPoint x="740" y="280" as="sourcePoint" />
            <mxPoint x="510" y="280" as="targetPoint" />
          </mxGeometry>
        </mxCell>
        <mxCell id="mDczGV4Bh8BKm_zVshYZ-22" value="&lt;font style=&quot;font-size: 9px;&quot;&gt;4: Информация о заказе (приготовлен)&lt;/font&gt;" style="text;html=1;align=center;verticalAlign=middle;whiteSpace=wrap;rounded=0;" parent="1" vertex="1">
          <mxGeometry x="520" y="250" width="220" height="30" as="geometry" />
        </mxCell>
        <mxCell id="mDczGV4Bh8BKm_zVshYZ-24" value="" style="endArrow=classic;html=1;rounded=0;entryX=1.027;entryY=0.933;entryDx=0;entryDy=0;entryPerimeter=0;dashed=1;exitX=0.001;exitY=0.91;exitDx=0;exitDy=0;exitPerimeter=0;" parent="1" source="mDczGV4Bh8BKm_zVshYZ-9" target="mDczGV4Bh8BKm_zVshYZ-6" edge="1">
          <mxGeometry width="50" height="50" relative="1" as="geometry">
            <mxPoint x="494" y="281" as="sourcePoint" />
            <mxPoint x="430" y="190" as="targetPoint" />
          </mxGeometry>
        </mxCell>
        <mxCell id="mDczGV4Bh8BKm_zVshYZ-25" value="" style="endArrow=classic;html=1;rounded=0;exitX=-0.02;exitY=0.938;exitDx=0;exitDy=0;exitPerimeter=0;dashed=1;" parent="1" source="mDczGV4Bh8BKm_zVshYZ-6" edge="1">
          <mxGeometry width="50" height="50" relative="1" as="geometry">
            <mxPoint x="249.09000000000003" y="280.7" as="sourcePoint" />
            <mxPoint x="75" y="280" as="targetPoint" />
          </mxGeometry>
        </mxCell>
        <mxCell id="mDczGV4Bh8BKm_zVshYZ-26" value="" style="endArrow=classic;html=1;rounded=0;exitX=-0.091;exitY=0.938;exitDx=0;exitDy=0;exitPerimeter=0;" parent="1" target="mDczGV4Bh8BKm_zVshYZ-6" edge="1">
          <mxGeometry width="50" height="50" relative="1" as="geometry">
            <mxPoint x="249.09000000000003" y="280.7" as="sourcePoint" />
            <mxPoint x="75" y="280" as="targetPoint" />
          </mxGeometry>
        </mxCell>
        <mxCell id="mDczGV4Bh8BKm_zVshYZ-6" value="" style="rounded=0;whiteSpace=wrap;html=1;" parent="1" vertex="1">
          <mxGeometry x="245" y="140" width="10" height="150" as="geometry" />
        </mxCell>
        <mxCell id="mDczGV4Bh8BKm_zVshYZ-27" value="&lt;font style=&quot;font-size: 9px;&quot;&gt;5: Информация о заказе (приготовлен)&lt;/font&gt;" style="text;html=1;align=center;verticalAlign=middle;whiteSpace=wrap;rounded=0;" parent="1" vertex="1">
          <mxGeometry x="270" y="250" width="220" height="30" as="geometry" />
        </mxCell>
        <mxCell id="mDczGV4Bh8BKm_zVshYZ-28" value="&lt;font style=&quot;font-size: 9px;&quot;&gt;6: Информация о заказе (приготовлен)&lt;/font&gt;" style="text;html=1;align=center;verticalAlign=middle;whiteSpace=wrap;rounded=0;" parent="1" vertex="1">
          <mxGeometry x="80" y="250" width="165" height="30" as="geometry" />
        </mxCell>
        <mxCell id="mDczGV4Bh8BKm_zVshYZ-29" value="" style="endArrow=none;dashed=1;html=1;rounded=0;entryX=0.5;entryY=1;entryDx=0;entryDy=0;" parent="1" target="mDczGV4Bh8BKm_zVshYZ-6" edge="1">
          <mxGeometry width="50" height="50" relative="1" as="geometry">
            <mxPoint x="250" y="300" as="sourcePoint" />
            <mxPoint x="270" y="320" as="targetPoint" />
          </mxGeometry>
        </mxCell>
        <mxCell id="mDczGV4Bh8BKm_zVshYZ-30" value="" style="endArrow=none;dashed=1;html=1;rounded=0;exitX=0.5;exitY=1;exitDx=0;exitDy=0;" parent="1" source="mDczGV4Bh8BKm_zVshYZ-9" edge="1">
          <mxGeometry width="50" height="50" relative="1" as="geometry">
            <mxPoint x="490" y="300" as="sourcePoint" />
            <mxPoint x="500" y="300" as="targetPoint" />
          </mxGeometry>
        </mxCell>
        <mxCell id="mDczGV4Bh8BKm_zVshYZ-31" value="" style="endArrow=none;dashed=1;html=1;rounded=0;exitX=0.5;exitY=1;exitDx=0;exitDy=0;" parent="1" source="mDczGV4Bh8BKm_zVshYZ-11" edge="1">
          <mxGeometry width="50" height="50" relative="1" as="geometry">
            <mxPoint x="750" y="340" as="sourcePoint" />
            <mxPoint x="760" y="300" as="targetPoint" />
          </mxGeometry>
        </mxCell>
        <mxCell id="mDczGV4Bh8BKm_zVshYZ-32" value="" style="endArrow=none;dashed=1;html=1;rounded=0;entryX=0.5;entryY=0;entryDx=0;entryDy=0;exitX=0.5;exitY=1;exitDx=0;exitDy=0;" parent="1" source="mDczGV4Bh8BKm_zVshYZ-5" target="mDczGV4Bh8BKm_zVshYZ-6" edge="1">
          <mxGeometry width="50" height="50" relative="1" as="geometry">
            <mxPoint x="320" y="170" as="sourcePoint" />
            <mxPoint x="370" y="120" as="targetPoint" />
          </mxGeometry>
        </mxCell>
        <mxCell id="mDczGV4Bh8BKm_zVshYZ-33" value="" style="endArrow=none;dashed=1;html=1;rounded=0;entryX=0.5;entryY=0;entryDx=0;entryDy=0;exitX=0.5;exitY=1;exitDx=0;exitDy=0;" parent="1" source="mDczGV4Bh8BKm_zVshYZ-8" target="mDczGV4Bh8BKm_zVshYZ-9" edge="1">
          <mxGeometry width="50" height="50" relative="1" as="geometry">
            <mxPoint x="540" y="200" as="sourcePoint" />
            <mxPoint x="590" y="150" as="targetPoint" />
          </mxGeometry>
        </mxCell>
        <mxCell id="mDczGV4Bh8BKm_zVshYZ-34" value="" style="endArrow=none;dashed=1;html=1;rounded=0;exitX=0.5;exitY=0;exitDx=0;exitDy=0;entryX=0.5;entryY=1;entryDx=0;entryDy=0;" parent="1" source="mDczGV4Bh8BKm_zVshYZ-11" target="mDczGV4Bh8BKm_zVshYZ-10" edge="1">
          <mxGeometry width="50" height="50" relative="1" as="geometry">
            <mxPoint x="770" y="220" as="sourcePoint" />
            <mxPoint x="820" y="170" as="targetPoint" />
          </mxGeometry>
        </mxCell>
        <mxCell id="mDczGV4Bh8BKm_zVshYZ-36" value="Персонал" style="shape=umlActor;verticalLabelPosition=bottom;verticalAlign=top;html=1;outlineConnect=0;" parent="1" vertex="1">
          <mxGeometry x="70" y="360" width="30" height="60" as="geometry" />
        </mxCell>
        <mxCell id="mDczGV4Bh8BKm_zVshYZ-37" value="Управление запасами" style="shape=umlBoundary;whiteSpace=wrap;html=1;" parent="1" vertex="1">
          <mxGeometry x="320" y="350" width="100" height="80" as="geometry" />
        </mxCell>
        <mxCell id="mDczGV4Bh8BKm_zVshYZ-38" value="" style="endArrow=none;html=1;rounded=0;entryX=-0.002;entryY=0.5;entryDx=0;entryDy=0;entryPerimeter=0;" parent="1" source="mDczGV4Bh8BKm_zVshYZ-36" target="mDczGV4Bh8BKm_zVshYZ-37" edge="1">
          <mxGeometry width="50" height="50" relative="1" as="geometry">
            <mxPoint x="170" y="450" as="sourcePoint" />
            <mxPoint x="220" y="400" as="targetPoint" />
          </mxGeometry>
        </mxCell>
        <mxCell id="mDczGV4Bh8BKm_zVshYZ-39" value="Подготовка продуктов" style="ellipse;shape=umlControl;whiteSpace=wrap;html=1;" parent="1" vertex="1">
          <mxGeometry x="640" y="350" width="70" height="80" as="geometry" />
        </mxCell>
        <mxCell id="mDczGV4Bh8BKm_zVshYZ-40" value="" style="endArrow=none;html=1;rounded=0;exitX=-0.002;exitY=0.53;exitDx=0;exitDy=0;exitPerimeter=0;entryX=0.998;entryY=0.52;entryDx=0;entryDy=0;entryPerimeter=0;" parent="1" source="mDczGV4Bh8BKm_zVshYZ-39" target="mDczGV4Bh8BKm_zVshYZ-37" edge="1">
          <mxGeometry width="50" height="50" relative="1" as="geometry">
            <mxPoint x="600" y="390" as="sourcePoint" />
            <mxPoint x="421" y="387" as="targetPoint" />
          </mxGeometry>
        </mxCell>
        <mxCell id="mDczGV4Bh8BKm_zVshYZ-41" value="Приготовление напитка" style="ellipse;shape=umlEntity;whiteSpace=wrap;html=1;" parent="1" vertex="1">
          <mxGeometry x="627.5" y="620" width="95" height="100" as="geometry" />
        </mxCell>
        <mxCell id="mDczGV4Bh8BKm_zVshYZ-42" value="" style="endArrow=none;html=1;rounded=0;entryX=0.486;entryY=1.033;entryDx=0;entryDy=0;entryPerimeter=0;exitX=0.5;exitY=0;exitDx=0;exitDy=0;" parent="1" source="mDczGV4Bh8BKm_zVshYZ-41" target="mDczGV4Bh8BKm_zVshYZ-39" edge="1">
          <mxGeometry width="50" height="50" relative="1" as="geometry">
            <mxPoint x="520" y="610" as="sourcePoint" />
            <mxPoint x="570" y="560" as="targetPoint" />
          </mxGeometry>
        </mxCell>
        <mxCell id="mDczGV4Bh8BKm_zVshYZ-43" value="" style="endArrow=classic;html=1;rounded=0;" parent="1" edge="1">
          <mxGeometry width="50" height="50" relative="1" as="geometry">
            <mxPoint x="140" y="370" as="sourcePoint" />
            <mxPoint x="260" y="370" as="targetPoint" />
          </mxGeometry>
        </mxCell>
        <mxCell id="mDczGV4Bh8BKm_zVshYZ-44" value="&lt;font style=&quot;font-size: 9px;&quot;&gt;1: Запрос информации о сырье&lt;/font&gt;" style="text;html=1;align=center;verticalAlign=middle;whiteSpace=wrap;rounded=0;" parent="1" vertex="1">
          <mxGeometry x="125" y="330" width="140" height="30" as="geometry" />
        </mxCell>
        <mxCell id="mDczGV4Bh8BKm_zVshYZ-46" value="" style="endArrow=classic;html=1;rounded=0;" parent="1" edge="1">
          <mxGeometry width="50" height="50" relative="1" as="geometry">
            <mxPoint x="480" y="370" as="sourcePoint" />
            <mxPoint x="600" y="370" as="targetPoint" />
          </mxGeometry>
        </mxCell>
        <mxCell id="mDczGV4Bh8BKm_zVshYZ-47" value="" style="endArrow=classic;html=1;rounded=0;" parent="1" edge="1">
          <mxGeometry width="50" height="50" relative="1" as="geometry">
            <mxPoint x="265" y="410" as="sourcePoint" />
            <mxPoint x="135" y="410" as="targetPoint" />
          </mxGeometry>
        </mxCell>
        <mxCell id="mDczGV4Bh8BKm_zVshYZ-48" value="" style="endArrow=classic;html=1;rounded=0;" parent="1" edge="1">
          <mxGeometry width="50" height="50" relative="1" as="geometry">
            <mxPoint x="600" y="410" as="sourcePoint" />
            <mxPoint x="470" y="410" as="targetPoint" />
          </mxGeometry>
        </mxCell>
        <mxCell id="mDczGV4Bh8BKm_zVshYZ-49" value="&lt;font style=&quot;font-size: 9px;&quot;&gt;2: Запрос информации о заказе&lt;/font&gt;" style="text;html=1;align=center;verticalAlign=middle;whiteSpace=wrap;rounded=0;" parent="1" vertex="1">
          <mxGeometry x="420" y="340" width="220" height="30" as="geometry" />
        </mxCell>
        <mxCell id="mDczGV4Bh8BKm_zVshYZ-50" value="" style="endArrow=classic;html=1;rounded=0;" parent="1" edge="1">
          <mxGeometry width="50" height="50" relative="1" as="geometry">
            <mxPoint x="650" y="460" as="sourcePoint" />
            <mxPoint x="650" y="590" as="targetPoint" />
          </mxGeometry>
        </mxCell>
        <mxCell id="mDczGV4Bh8BKm_zVshYZ-51" value="" style="endArrow=classic;html=1;rounded=0;" parent="1" edge="1">
          <mxGeometry width="50" height="50" relative="1" as="geometry">
            <mxPoint x="700" y="590" as="sourcePoint" />
            <mxPoint x="700" y="460" as="targetPoint" />
          </mxGeometry>
        </mxCell>
        <mxCell id="mDczGV4Bh8BKm_zVshYZ-52" value="&lt;font style=&quot;font-size: 9px;&quot;&gt;3: Информация о приготовлении заказа&lt;/font&gt;" style="text;html=1;align=center;verticalAlign=middle;whiteSpace=wrap;rounded=0;" parent="1" vertex="1">
          <mxGeometry x="690" y="500" width="120" height="30" as="geometry" />
        </mxCell>
        <mxCell id="mDczGV4Bh8BKm_zVshYZ-53" value="&lt;font style=&quot;font-size: 9px;&quot;&gt;4: Информация о заказе (приготовлен)&lt;/font&gt;" style="text;html=1;align=center;verticalAlign=middle;whiteSpace=wrap;rounded=0;" parent="1" vertex="1">
          <mxGeometry x="510" y="490" width="160" height="30" as="geometry" />
        </mxCell>
        <mxCell id="mDczGV4Bh8BKm_zVshYZ-54" value="&lt;font style=&quot;font-size: 9px;&quot;&gt;5: Информация о заказе (приготовлен)&lt;/font&gt;" style="text;html=1;align=center;verticalAlign=middle;whiteSpace=wrap;rounded=0;" parent="1" vertex="1">
          <mxGeometry x="420" y="420" width="220" height="30" as="geometry" />
        </mxCell>
        <mxCell id="mDczGV4Bh8BKm_zVshYZ-55" value="&lt;font style=&quot;font-size: 9px;&quot;&gt;6: Информация о заказе (приготовлен)&lt;/font&gt;" style="text;html=1;align=center;verticalAlign=middle;whiteSpace=wrap;rounded=0;" parent="1" vertex="1">
          <mxGeometry x="112.5" y="410" width="165" height="30" as="geometry" />
        </mxCell>
      </root>
    </mxGraphModel>
  </diagram>
</mxfile>
